<mxfile host="app.diagrams.net" modified="2023-12-25T04:33:32.989Z" agent="Mozilla/5.0 (X11; Linux x86_64) AppleWebKit/537.36 (KHTML, like Gecko) Chrome/120.0.0.0 Safari/537.36" version="22.1.11" etag="JyP0fpiee743P13qZrP7" type="github">
  <diagram name="第 1 页" id="CiREt7vdbcbse35liX8I">
    <mxGraphModel>
      <root>
        <mxCell id="0" />
        <mxCell id="1" parent="0" />
      </root>
    </mxGraphModel>
  </diagram>
</mxfile>
